# xmcd CD database file
#
# Track frame offsets:
#	150
#	24390
#	37425
#	54055
#	69565
#	82912
#	99177
#	125477
#	149555
#	172070
#	194742
#	217145
#	231705
#
# Disc length: 3315 seconds
#
# Revision: 0
# Processed by: cddbd v1.4PL0 Copyright (c) Steve Scherf et al.
# Submitted via: CdAid 2001.05.15.01
#
DISCID=c70cf10d
DTITLE=Variuos - Cinema Blues
DYEAR=1900
DGENRE=
TTITLE0=Blues in The Night
TTITLE1=Drum Duet
TTITLE2=West End Blues
TTITLE3=Stormy Weather
TTITLE4=That Ain't Right
TTITLE5=Really The Blues
TTITLE6=Now You Have Jazz
TTITLE7=In the Evening
TTITLE8=West Coast Blues
TTITLE9=Basin Street Blues
TTITLE10=St Louis Blues Boogie
TTITLE11=Honk Tonk Train Blues
TTITLE12=Chaucer Street
EXTD=CD do Geraldo
EXTT0=Limmy Lunceford Orchestra
EXTT1=Lionel Hampton - Sidney Catlett
EXTT2=Cat Henderson e Raymond Fonseque Band
EXTT3=Duke Elington Orchestra (Ivie Anderson, vocal)
EXTT4=Ada Brown - Fats Waller
EXTT5=Sidney Bechet Orchestra
EXTT6=Louis Armstrong All Stars
EXTT7=Memphis Slim
EXTT8=Sonny Criss Quartet
EXTT9=Louis Armstrong
EXTT10=Earl Hines
EXTT11=Meade Lux Lewis
EXTT12=John Lurie
PLAYORDER=
